<svg width="38" height="26" viewBox="0 0 38 26" fill="none" xmlns="http://www.w3.org/2000/svg">
    <path d="M10 18C7.79507 18 6 19.7951 6 22C6 24.2049 7.79507 26 10 26C12.2049 26.0038 14 24.2087 14 22C14 19.7913 12.2049 18 10 18ZM10 24.7856C8.463 24.7856 7.21442 23.537 7.21442 22C7.21442 20.463 8.463 19.2144 10 19.2144C11.537 19.2144 12.7856 20.463 12.7856 22C12.7856 23.537 11.537 24.7856 10 24.7856Z" fill="#40D7CB"/>
    <path d="M9.5 20C8.67159 20 8 20.8955 8 22C8 23.1045 8.67159 24 9.5 24C10.3284 24 11 23.1045 11 22C11 20.8955 10.3284 20 9.5 20Z" fill="#40D7CB"/>
    <path d="M30 18C27.7951 18 26 19.7951 26 22C26 24.2049 27.7951 26 30 26C32.2049 26 34 24.2049 34 22C34 19.7951 32.2049 18 30 18ZM30 24.7856C28.463 24.7856 27.2144 23.537 27.2144 22C27.2144 20.463 28.463 19.2144 30 19.2144C31.537 19.2144 32.7856 20.463 32.7856 22C32.7856 23.537 31.5332 24.7856 30 24.7856Z" fill="#40D7CB"/>
    <path d="M30 20C28.8955 20 28 20.8955 28 22C28 23.1045 28.8955 24 30 24C31.1045 24 32 23.1045 32 22C32 20.8955 31.1045 20 30 20Z" fill="#40D7CB"/>
    <path d="M37.6255 10.1299L34.2817 8.73238C33.8543 7.9732 32.2353 5.16691 30.9644 4.06403C30.8547 3.9696 30.7147 3.91673 30.5672 3.91673H25.6044V0.604317C25.6044 0.271942 25.3321 0 24.9992 0H0.605216C0.272347 0 0 0.271942 0 0.604317V15.3761C0 15.7085 0.272347 15.9804 0.605216 15.9804H1.65678V20.3957C1.65678 20.7281 1.92913 21 2.26199 21H4.93251C5.18973 21 5.41668 20.8376 5.50368 20.5996C6.12403 18.8585 7.78081 17.6914 9.6305 17.6914C11.4764 17.6914 13.1332 18.8622 13.7535 20.5996C13.8405 20.8414 14.0675 21 14.3247 21H25.3207C25.5779 21 25.8049 20.8376 25.8919 20.5996C26.5122 18.8585 28.169 17.6914 30.0187 17.6914C31.8684 17.6914 33.5214 18.8622 34.1455 20.5996C34.2325 20.8414 34.4595 21 34.7167 21H37.3948C37.7277 21 38 20.7281 38 20.3957V15.4441V10.6888C37.9962 10.4433 37.8487 10.2243 37.6255 10.1299ZM25.6158 5.12536H30.3289C31.5998 6.36043 33.3058 9.46511 33.3209 9.4991C33.3852 9.61996 33.4911 9.71439 33.6198 9.76727L36.7858 11.093V14.8435H25.6158V5.12536ZM1.21043 2.97626H2.74239V13.0532H1.21043V2.97626ZM3.5216 2.97626H5.14812V13.0532H3.5216V2.97626ZM5.92733 2.97626H7.55385V13.0532H5.92733V2.97626ZM8.33685 2.97626H9.96337V13.0532H8.33685V2.97626ZM10.7426 2.97626H12.3691V13.0532H10.7426V2.97626ZM13.1483 2.97626H14.7748V13.0532H13.1483V2.97626ZM15.5578 2.97626H17.1844V13.0532H15.5578V2.97626ZM17.9636 2.97626H19.5901V13.0532H17.9636V2.97626ZM20.3693 2.97626H21.9958V13.0532H20.3693V2.97626ZM22.7788 2.97626H24.394V13.0532H22.7788V2.97626ZM1.21043 1.20863H24.394V2.11133H1.21043V1.20863ZM1.21043 14.7718V13.9182H24.394V14.7718H1.21043ZM36.7858 19.7914H35.1252C34.2325 17.7933 32.2315 16.479 30.0187 16.479C27.8059 16.479 25.8049 17.7933 24.9122 19.7914H14.737C13.8443 17.7933 11.8433 16.479 9.6305 16.479C7.41768 16.479 5.41668 17.7933 4.52399 19.7914H2.87099V16.0484H25.0106H36.7858V19.7914Z" fill="#40D7CB"/>
    <path d="M29.2524 6H26V10H32L31.9692 9.944C31.2987 8.772 30.1272 6.98 29.2524 6Z" fill="#40D7CB"/>
    <path d="M29 11H27V12H29V11Z" fill="#40D7CB"/>
</svg>
