<svg width="32" height="28" viewBox="0 0 32 28" fill="none" xmlns="http://www.w3.org/2000/svg">
<path d="M27.8916 11.8654V9.77938C27.8916 9.75695 27.8916 9.73825 27.8879 9.71582C27.6262 7.21115 26.3028 4.90087 24.157 3.21115C21.9664 1.49152 19.0542 0.541992 15.9514 0.541992C12.8 0.541992 10.1308 1.40928 8.01122 3.12143C6.06356 4.69526 4.68412 6.94947 4.02244 9.63732C4.01122 9.68592 4.00375 9.73078 4.00375 9.77938V11.8616C1.9215 12.0672 0.299072 13.4728 0.299072 15.17V16.9906C0.299072 18.714 1.96636 20.1345 4.09346 20.3027C4.25795 21.5812 4.93459 22.7027 5.90655 23.4579V26.542C5.90655 26.871 6.17571 27.1401 6.50468 27.1401C6.83365 27.1401 7.10281 26.8747 7.10281 26.5457V26.542V24.1345C7.63739 24.3401 8.21683 24.456 8.82244 24.456H9.64487C10.3103 25.3121 11.1252 26.0298 12.0486 26.5719C13.2449 27.271 14.6243 27.671 16.0897 27.671C17.5215 27.671 18.8748 27.2897 20.0523 26.6168C22.6393 25.1439 24.4 22.2691 24.4 18.9756V14.1869V14.1831C24.4 14.1682 24.4 14.1569 24.3963 14.142C24.3963 14.1345 24.3963 14.1308 24.3963 14.1233C24.3963 14.1121 24.3925 14.0971 24.3888 14.0859C24.3888 14.0784 24.3851 14.071 24.3851 14.0635C24.3813 14.0523 24.3813 14.0411 24.3776 14.0336C24.3738 14.0261 24.3738 14.0149 24.3701 14.0074C24.3664 13.9999 24.3626 13.9925 24.3626 13.985C24.3589 13.9738 24.3551 13.9626 24.3514 13.9551C24.3477 13.9476 24.3439 13.9439 24.3439 13.9364C24.3402 13.9252 24.3327 13.914 24.329 13.9027C24.3252 13.8953 24.3215 13.8915 24.3178 13.884C24.3103 13.8728 24.3065 13.8616 24.2991 13.8541C24.2953 13.8467 24.2879 13.8429 24.2841 13.8355C24.2766 13.828 24.2729 13.8168 24.2654 13.8093C24.258 13.8018 24.2505 13.7943 24.243 13.7869C24.2355 13.7794 24.2318 13.7719 24.2243 13.7682C24.2168 13.7607 24.2056 13.7532 24.1981 13.7457C24.1944 13.742 24.1869 13.7345 24.1832 13.7308C24.1757 13.7233 24.1645 13.7158 24.1533 13.7083C24.1458 13.7046 24.1421 13.7009 24.1346 13.6934C24.1271 13.6859 24.1159 13.6822 24.1084 13.6784C24.1009 13.6747 24.0935 13.671 24.086 13.6635C24.0785 13.6597 24.071 13.656 24.0636 13.6523C24.0523 13.6485 24.0449 13.6411 24.0337 13.6373C24.0262 13.6336 24.0187 13.6336 24.015 13.6298C24.0037 13.6261 23.9925 13.6224 23.9776 13.6186C23.9701 13.6186 23.9664 13.6149 23.9589 13.6149C23.9439 13.6112 23.9327 13.6074 23.9178 13.6037H23.914C23.3122 13.4915 22.4897 13.1925 21.6075 12.8149C19.2486 11.8018 16.4785 10.2242 16.4411 10.2018C16.2318 10.0822 15.9701 10.1009 15.7794 10.2467C14.0337 11.5812 12.1869 12.3962 10.7925 12.871C9.46917 13.3233 8.56075 13.4691 8.54206 13.4728C8.42618 13.4915 8.32524 13.5401 8.243 13.6112C7.98132 13.6747 7.78692 13.9102 7.78692 14.1906V18.9831C7.78692 20.5383 8.17945 21.9999 8.8673 23.2635H8.82991C8.20561 23.2635 7.62244 23.1027 7.11029 22.8224V12.8859V12.6168C7.11029 8.13078 11.1327 4.48218 16.0823 4.48218C21.028 4.48218 25.0542 8.13078 25.0542 12.6168V12.7925V26.6541V26.6579C25.0542 26.9869 25.3234 27.256 25.6523 27.256C25.9813 27.256 26.2505 26.9869 26.2505 26.6579V12.7887V12.6168C26.2505 7.47283 21.6897 3.28592 16.0823 3.28592C10.4748 3.28592 5.91403 7.47283 5.91403 12.6168V12.8934V21.7495C5.49907 21.1663 5.25608 20.456 5.25608 19.6859C5.25608 19.5962 5.23365 19.5102 5.20001 19.4317V13.0093C5.20748 12.9719 5.21122 12.9383 5.21122 12.8971V12.8934V9.85414C5.81683 7.45414 7.04674 5.44667 8.77384 4.05227C10.6654 2.51582 13.0804 1.73825 15.9514 1.73825C18.7888 1.73825 21.4393 2.59807 23.4168 4.15695C25.2972 5.63732 26.4636 7.64853 26.6953 9.81302V12.7775V12.7812C26.6953 12.8074 26.6991 12.8298 26.6991 12.856V19.7196C26.6991 20.0485 26.9608 20.314 27.2897 20.3177H27.3122C27.3308 20.3177 27.3495 20.3177 27.3682 20.3177C29.6972 20.3177 31.5925 18.8224 31.5925 16.9869V15.1663C31.5963 13.4728 29.9776 12.071 27.8916 11.8654ZM8.97945 18.9831V14.6055C9.33832 14.5345 10.0449 14.3775 10.9533 14.0784C11.7944 13.8018 12.8075 13.4055 13.8841 12.8485C14.6355 12.4597 15.4131 11.9925 16.1832 11.428C16.6841 11.7083 17.6748 12.2504 18.815 12.8224C19.7608 13.2971 20.8075 13.7906 21.7645 14.1682C22.2804 14.3738 22.7664 14.542 23.2 14.6616V18.9794C23.2 23.114 20.0112 26.4747 16.0897 26.4747C14.2168 26.4747 12.5122 25.7083 11.2411 24.456H12.1495C12.4 24.9196 12.8897 25.2336 13.4542 25.2336H15.1514C15.9664 25.2336 16.6318 24.5682 16.6318 23.7532C16.6318 22.9383 15.9664 22.2728 15.1514 22.2728H13.4542C12.8112 22.2728 12.2654 22.684 12.0598 23.256H10.2542C9.45047 22.0485 8.97945 20.5719 8.97945 18.9831ZM30.3963 16.9906C30.3963 18.0411 29.3159 18.9158 27.8953 19.0915V13.0691C29.3122 13.2448 30.3963 14.1196 30.3963 15.17V16.9906ZM1.49533 15.17C1.49533 14.1196 2.57571 13.2448 3.99627 13.0691V19.0915C2.57571 18.9158 1.49533 18.0411 1.49533 16.9906V15.17Z" fill="#40D7CB"/>
</svg>
