<svg width="26" height="28" viewBox="0 0 26 28" fill="none" xmlns="http://www.w3.org/2000/svg">
<path d="M8.25217 11.989C3.85964 11.989 0.289551 15.5591 0.289551 19.9479C0.289551 24.3367 3.85964 27.9105 8.25217 27.9105C11.7213 27.9105 14.6821 25.6787 15.7662 22.5722C16.3045 22.5946 16.7942 22.6021 17.198 22.6021C19.6428 22.6021 25.3288 22.3442 25.3288 19.9479C25.3288 19.9404 25.3288 19.9329 25.3288 19.9255C25.3288 19.918 25.3288 19.9143 25.3288 19.9068V16.8488V16.7068C25.3438 16.6357 25.3512 16.5647 25.3512 16.4862C25.3512 16.4152 25.3438 16.3479 25.3288 16.2806V13.6488C25.3438 13.5778 25.3512 13.503 25.3512 13.4283C25.3512 13.3572 25.3438 13.29 25.3288 13.2227V10.2918C25.3438 10.2208 25.3512 10.1498 25.3512 10.0713C25.3512 9.94416 25.3251 9.82827 25.2839 9.71612C25.3101 9.61145 25.3251 9.50304 25.3251 9.38715C25.3251 9.37967 25.3251 9.3722 25.3251 9.36472C25.3251 9.35724 25.3251 9.3535 25.3251 9.34603V6.14977C25.34 6.07874 25.3475 6.00397 25.3475 5.9292C25.3475 5.85818 25.34 5.79089 25.3251 5.7236V2.79649C25.34 2.72547 25.3475 2.6507 25.3475 2.57593C25.3475 2.44509 25.3213 2.32173 25.2765 2.20584C25.2054 1.95911 25.0522 1.7535 24.8466 1.6264C23.1905 0.217055 17.9008 0.168457 17.198 0.168457C16.4952 0.168457 11.2054 0.217055 9.54189 1.6264C9.33628 1.75724 9.18301 1.95911 9.11198 2.20584C9.06712 2.32173 9.04095 2.44509 9.04095 2.57593C9.04095 2.6507 9.04843 2.72547 9.06338 2.79649V5.72734C9.04843 5.79463 9.04095 5.86192 9.04095 5.93294C9.04095 6.00771 9.04843 6.08248 9.06338 6.1535V9.3535C9.06338 9.36098 9.06338 9.36846 9.06338 9.37593C9.06338 9.38341 9.06338 9.38715 9.06338 9.39463C9.06338 9.51051 9.08207 9.61892 9.1045 9.7236C9.06338 9.83575 9.04095 9.95537 9.04095 10.0787C9.04095 10.1535 9.04843 10.2283 9.06338 10.2993V12.0339C8.79796 12.004 8.52506 11.989 8.25217 11.989ZM24.4017 19.8843C24.4017 19.903 24.398 19.9255 24.4017 19.9404C24.4017 19.9479 24.4017 19.9591 24.4017 19.9666C24.3568 20.86 21.1419 21.5815 17.2017 21.5815C16.8092 21.5815 16.4279 21.5741 16.0503 21.5591C16.1587 21.0395 16.2148 20.5012 16.2148 19.9479C16.2148 19.8058 16.211 19.6675 16.2036 19.5292C16.5699 19.5404 16.9101 19.5442 17.2017 19.5442C19.0335 19.5442 22.6896 19.3984 24.4054 18.3143V19.8843H24.4017ZM24.4017 16.8264C24.4017 16.8451 24.398 16.8675 24.4017 16.8862C24.4017 16.8937 24.4017 16.9012 24.4017 16.9124C24.3568 17.8058 21.1419 18.5273 17.2017 18.5273C16.8204 18.5273 16.4466 18.5199 16.0839 18.5049C15.9269 17.66 15.6428 16.8638 15.2428 16.1348C15.9867 16.1797 16.6746 16.1909 17.2054 16.1909C19.0372 16.1909 22.6933 16.0451 24.4092 14.961V16.8264H24.4017ZM24.4017 9.3236C24.4017 9.34229 24.398 9.36472 24.4017 9.37967C24.4017 9.38715 24.4017 9.39836 24.4017 9.40584C24.3568 10.2993 21.1419 11.0208 17.2017 11.0208C13.2578 11.0208 10.0428 10.2993 9.99796 9.40584C9.99796 9.38715 9.99796 9.3722 9.99796 9.3535C9.99796 9.34229 9.99796 9.33107 9.99796 9.31986V7.45444C11.7101 8.53855 15.3699 8.68435 17.2017 8.68435C19.0335 8.68435 22.6896 8.53855 24.4054 7.45818V9.3236H24.4017ZM17.198 1.34229C21.2877 1.34229 23.8185 2.10117 24.2484 2.57593C23.8223 3.0507 21.2877 3.80958 17.198 3.80958C13.1082 3.80958 10.5737 3.0507 10.1475 2.57593C10.5737 2.10117 13.1082 1.34229 17.198 1.34229ZM17.198 4.98341C17.8447 4.98341 22.3905 4.94229 24.4017 3.83201V5.97033C24.4017 5.98902 24.398 6.01145 24.4017 6.0264C24.4017 6.03388 24.4017 6.04509 24.4017 6.05257C24.3568 6.94603 21.1419 7.66752 17.2017 7.66752C13.2578 7.66752 10.0428 6.94229 9.99796 6.05257C9.99796 6.03388 9.99796 6.01892 9.99796 6.00397C9.99796 5.99276 9.99796 5.98154 9.99796 5.97033V3.83201C12.0017 4.94229 16.5512 4.98341 17.198 4.98341ZM17.198 12.4825C17.8447 12.4825 22.3905 12.4414 24.4017 11.3311V13.4694C24.4017 13.4881 24.398 13.5105 24.4017 13.5255C24.4017 13.5329 24.4017 13.5442 24.4017 13.5516C24.3568 14.4451 21.1419 15.1666 17.2017 15.1666C16.2559 15.1666 15.3512 15.1255 14.5251 15.047C13.411 13.6227 11.8223 12.5871 9.99796 12.1797V11.3273C12.0017 12.4414 16.5512 12.4825 17.198 12.4825ZM15.1942 19.9479C15.1942 23.7759 12.0802 26.89 8.25217 26.89C4.42413 26.89 1.31011 23.7759 1.31011 19.9479C1.31011 16.1199 4.42413 13.0058 8.25217 13.0058C12.0802 13.0096 15.1942 16.1236 15.1942 19.9479Z" fill="#40D7CB"/>
</svg>
