<svg width="30" height="28" viewBox="0 0 30 28" fill="none" xmlns="http://www.w3.org/2000/svg">
<path d="M1.39256 25.5815H18.0804C19.2991 26.7703 20.9627 27.503 22.7982 27.503C26.529 27.503 29.5645 24.4675 29.5645 20.7367C29.5645 18.2657 28.2337 16.1012 26.2486 14.9199V0.766588C26.2486 0.437616 25.9795 0.168457 25.6505 0.168457H7.35892C7.35144 0.168457 7.3477 0.168457 7.34023 0.168457C7.32901 0.168457 7.31406 0.168457 7.30285 0.172195C7.29537 0.172195 7.28415 0.175934 7.27668 0.175934C7.26546 0.175934 7.25425 0.179672 7.24677 0.179672C7.23556 0.179672 7.22808 0.18341 7.21686 0.187149C7.20565 0.190887 7.19817 0.190887 7.18696 0.194625C7.17948 0.198364 7.16827 0.202102 7.16079 0.20584C7.14957 0.20584 7.1421 0.209579 7.13088 0.213317C7.12341 0.217055 7.11219 0.220793 7.10471 0.224532C7.09724 0.22827 7.08602 0.232008 7.07855 0.239485C7.07107 0.243223 7.06359 0.246962 7.05612 0.254438C7.04864 0.258177 7.03742 0.265653 7.02995 0.269392C7.02247 0.27313 7.01499 0.280607 7.00378 0.288083C6.9963 0.29556 6.98883 0.299298 6.98135 0.306775C6.97387 0.314251 6.96266 0.321728 6.95518 0.329205C6.95144 0.332943 6.94397 0.336681 6.94023 0.344158L0.973873 6.2021C0.973873 6.2021 0.973873 6.2021 0.973873 6.20584C0.962658 6.21705 0.955181 6.22453 0.943966 6.23575C0.940228 6.23948 0.93649 6.24322 0.932751 6.24696C0.921536 6.26192 0.910321 6.27687 0.899106 6.29182C0.89163 6.30304 0.884153 6.31425 0.876677 6.32547C0.872938 6.33294 0.8692 6.33668 0.865462 6.34416C0.861723 6.35537 0.854247 6.36285 0.850508 6.37406C0.84677 6.38154 0.843032 6.38902 0.839293 6.39649C0.835555 6.40397 0.831817 6.41519 0.828078 6.4264C0.82434 6.43388 0.820602 6.44509 0.816863 6.45257C0.813125 6.46378 0.813125 6.47126 0.809387 6.48248C0.805649 6.48995 0.805649 6.50117 0.80191 6.51238C0.798172 6.53107 0.794434 6.54977 0.794434 6.56846C0.794434 6.5722 0.794434 6.57593 0.794434 6.58341C0.794434 6.59463 0.794434 6.61332 0.794434 6.62827C0.794434 6.62827 0.794434 6.62827 0.794434 6.63201V24.9871C0.794434 25.3161 1.06359 25.5815 1.39256 25.5815ZM1.9907 24.3853V7.2264H7.6692V16.4675L9.24677 15.3722L10.458 16.4675L11.6468 15.3273L13.4972 16.4675V7.2264H19.086V15.0769C17.2468 16.2881 16.0281 18.3703 16.0281 20.7329C16.0281 22.075 16.4243 23.3273 17.101 24.3815H1.9907V24.3853ZM19.9496 25.5217C19.643 25.3386 19.3589 25.1292 19.0935 24.8937C18.9178 24.7367 18.7496 24.5647 18.5926 24.3853C17.7402 23.4058 17.2243 22.1311 17.2243 20.7367C17.2243 19.0881 17.9458 17.6077 19.086 16.5871C19.4449 16.2657 19.8486 15.989 20.2823 15.7685C21.0374 15.3834 21.8898 15.1666 22.7944 15.1666C23.5982 15.1666 24.3608 15.3386 25.0486 15.6451C25.4785 15.8357 25.8823 16.0825 26.2449 16.3703C27.5346 17.3909 28.3645 18.9685 28.3645 20.7367C28.3645 23.8096 25.8636 26.3068 22.7944 26.3068C21.7552 26.3068 20.7832 26.0189 19.9496 25.5217ZM22.7982 13.9666C21.9085 13.9666 21.0636 14.1385 20.286 14.4526V6.875L25.0524 2.04883V14.3554C24.3458 14.1049 23.587 13.9666 22.7982 13.9666ZM19.4337 6.03014H14.2075L18.7832 1.36472H24.043L19.4337 6.03014ZM7.60191 1.36472H12.9066L8.17013 6.03014H2.85799L7.60191 1.36472Z" fill="#40D7CB"/>
</svg>
