<svg width="24" height="32" viewBox="0 0 24 32" fill="none" xmlns="http://www.w3.org/2000/svg">
<path d="M4.5644 4.05958H2.08216C1.1588 4.05958 0.411133 4.80724 0.411133 5.72687V30.2428C0.411133 31.1624 1.1588 31.9138 2.08216 31.9138H21.6298C22.5494 31.9138 23.3009 31.1661 23.3009 30.2428V5.72687C23.3009 4.80724 22.5532 4.05584 21.6298 4.05584H19.1476C19.1027 3.13995 18.385 2.40724 17.5065 2.40724H15.899C15.6896 1.21098 14.6429 0.298828 13.3868 0.298828H10.684C9.42796 0.298828 8.38123 1.21098 8.17188 2.40724H6.19805C5.32702 2.40724 4.60926 3.13995 4.5644 4.05958ZM19.0728 6.61659H20.284V28.2689H3.39431V6.61659H4.63543C4.84852 7.31939 5.46908 7.83154 6.20179 7.83154H17.5065C18.2392 7.83154 18.8597 7.31939 19.0728 6.61659ZM22.1009 5.72687V30.2428C22.1009 30.5044 21.8878 30.7138 21.6298 30.7138H2.08216C1.82048 30.7138 1.61113 30.5007 1.61113 30.2428V5.72687C1.61113 5.46518 1.82422 5.25584 2.08216 5.25584H4.56067V5.42032H2.79618C2.46721 5.42032 2.19805 5.68948 2.19805 6.01845V28.8671C2.19805 29.196 2.46721 29.4652 2.79618 29.4652H20.8822C21.2111 29.4652 21.4803 29.196 21.4803 28.8671V6.01845C21.4803 5.68948 21.2111 5.42032 20.8822 5.42032H19.1513V5.25584H21.6298C21.8915 5.25584 22.1009 5.46892 22.1009 5.72687ZM5.75693 4.15303C5.75693 3.85023 5.9588 3.60724 6.20553 3.60724H8.7401C9.06908 3.60724 9.33823 3.33808 9.33823 3.00911V2.84836C9.33823 2.10444 9.94384 1.49509 10.6915 1.49509H13.3943C14.1382 1.49509 14.7476 2.1007 14.7476 2.84836V3.00537C14.7476 3.33808 15.0167 3.6035 15.3457 3.6035H17.5139C17.7607 3.6035 17.9625 3.85023 17.9625 4.1493V4.65397V6.08201C17.9625 6.38481 17.7607 6.6278 17.5139 6.6278H6.20179C5.95506 6.6278 5.75319 6.38107 5.75319 6.08201V4.65397V4.15303H5.75693Z" fill="#40D7CB"/>
<path d="M11.7383 5.10991C12.7028 5.10991 13.4878 4.32486 13.4878 3.36037C13.4878 2.39589 12.7028 1.61084 11.7383 1.61084C10.7738 1.61084 9.98877 2.39589 9.98877 3.36037C9.98877 4.32486 10.7738 5.10991 11.7383 5.10991ZM11.7383 2.8071C12.0411 2.8071 12.2916 3.05383 12.2916 3.36037C12.2916 3.66318 12.0448 3.91364 11.7383 3.91364C11.4318 3.91364 11.185 3.66318 11.185 3.36037C11.185 3.05757 11.4318 2.8071 11.7383 2.8071Z" fill="#40D7CB"/>
<path d="M4.36646 11.1177C4.36646 11.4466 4.63561 11.7158 4.96459 11.7158H18.4711C18.8001 11.7158 19.0693 11.4466 19.0693 11.1177C19.0693 10.7887 18.8001 10.5195 18.4711 10.5195H4.96459C4.63188 10.5195 4.36646 10.7887 4.36646 11.1177Z" fill="#40D7CB"/>
<path d="M13.058 14.6729H4.96459C4.63561 14.6729 4.36646 14.942 4.36646 15.271C4.36646 15.6 4.63561 15.8691 4.96459 15.8691H13.0618C13.3908 15.8691 13.6599 15.6 13.6599 15.271C13.6599 14.9383 13.3908 14.6729 13.058 14.6729Z" fill="#40D7CB"/>
<path d="M13.058 19.2222H4.96459C4.63561 19.2222 4.36646 19.4913 4.36646 19.8203C4.36646 20.1493 4.63561 20.4184 4.96459 20.4184H13.0618C13.3908 20.4184 13.6599 20.1493 13.6599 19.8203C13.6599 19.4913 13.3908 19.2222 13.058 19.2222Z" fill="#40D7CB"/>
<path d="M13.058 23.7754H4.96459C4.63561 23.7754 4.36646 24.0446 4.36646 24.3735C4.36646 24.7025 4.63561 24.9717 4.96459 24.9717H13.0618C13.3908 24.9717 13.6599 24.7025 13.6599 24.3735C13.6599 24.0446 13.3908 23.7754 13.058 23.7754Z" fill="#40D7CB"/>
<path d="M17.5291 13.3341L16.0113 14.9229L15.5926 14.3547C15.3982 14.0893 15.0207 14.0332 14.7552 14.2276C14.4898 14.422 14.4337 14.7995 14.6281 15.065L15.4693 16.2051C15.5739 16.3472 15.7347 16.4369 15.9141 16.4481C15.9253 16.4481 15.9403 16.4481 15.9515 16.4481C16.116 16.4481 16.2693 16.3808 16.3851 16.265L18.3964 14.164C18.6244 13.9248 18.6169 13.5472 18.3777 13.3192C18.1384 13.0874 17.7571 13.0949 17.5291 13.3341Z" fill="#40D7CB"/>
<path d="M17.5291 18.0895L16.0113 19.6782L15.5926 19.11C15.3982 18.8446 15.0207 18.7885 14.7552 18.9829C14.4898 19.1773 14.4337 19.5549 14.6281 19.8203L15.4693 20.9605C15.5739 21.1025 15.7347 21.1923 15.9141 21.2035C15.9253 21.2035 15.9403 21.2035 15.9515 21.2035C16.116 21.2035 16.2693 21.1362 16.3851 21.0203L18.3964 18.9194C18.6244 18.6801 18.6169 18.3025 18.3777 18.0745C18.1384 17.839 17.7571 17.8502 17.5291 18.0895Z" fill="#40D7CB"/>
<path d="M17.5291 22.841L16.0113 24.4297L15.5926 23.8615C15.3982 23.5961 15.0207 23.54 14.7552 23.7344C14.4898 23.9288 14.4337 24.3064 14.6281 24.5718L15.4693 25.712C15.5739 25.854 15.7347 25.9438 15.9141 25.955C15.9253 25.955 15.9403 25.955 15.9515 25.955C16.116 25.955 16.2693 25.8877 16.3851 25.7718L18.3964 23.6709C18.6244 23.4316 18.6169 23.054 18.3777 22.826C18.1384 22.5942 17.7571 22.6017 17.5291 22.841Z" fill="#40D7CB"/>
</svg>
