<svg width="128" height="63" viewBox="0 0 128 63" fill="none" xmlns="http://www.w3.org/2000/svg">
    <g filter="url(#filter0_d)">
        <path d="M16.6392 53.1938C16.6392 53.5029 16.4565 53.6575 16.0912 53.6575H13.6778C13.4038 53.6575 13.1088 53.5626 12.7926 53.3729C12.4764 53.1762 12.2305 52.9408 12.0549 52.6668L10.2001 49.7266C9.75751 49.01 9.31138 48.4725 8.86174 48.1142C8.41209 47.7489 7.87111 47.5662 7.2388 47.5662H4.97302V52.6879C4.97302 52.9619 4.87466 53.1938 4.67794 53.3835C4.48825 53.5661 4.2564 53.6575 3.9824 53.6575H2.00116C1.72716 53.6575 1.4918 53.5591 1.29508 53.3624C1.09836 53.1586 1 52.9198 1 52.6458V39.5464C1 39.2724 1.09836 39.0335 1.29508 38.8298C1.4918 38.626 1.72716 38.5241 2.00116 38.5241H3.9824C4.2564 38.5241 4.48825 38.626 4.67794 38.8298C4.87466 39.0335 4.97302 39.2724 4.97302 39.5464V44.5943H7.2388C7.85706 44.5943 8.39804 44.4257 8.86174 44.0885C9.33246 43.7512 9.77859 43.2068 10.2001 42.455L11.8336 39.5464C12.206 38.8719 12.7118 38.5312 13.3511 38.5241H15.7855C16.1228 38.5241 16.2914 38.6717 16.2914 38.9668C16.2914 39.1284 16.2317 39.3216 16.1122 39.5464L13.8254 43.688C13.4952 44.2922 13.1228 44.791 12.7083 45.1845C12.3008 45.5779 11.7669 45.8554 11.1064 46.017C11.5701 46.1154 12.0444 46.407 12.5291 46.8917C13.0209 47.3765 13.453 47.9034 13.8254 48.4725L16.46 52.6668C16.5794 52.8706 16.6392 53.0462 16.6392 53.1938Z" fill="white"/>
        <path d="M36.0996 52.0978C34.6664 53.3554 32.5587 53.9842 29.7765 53.9842C27.0013 53.9842 24.8936 53.3554 23.4534 52.0978C22.0131 50.8331 21.293 48.8343 21.293 46.1013C21.293 43.3683 22.0131 41.3731 23.4534 40.1155C24.8936 38.8579 27.0013 38.2291 29.7765 38.2291C32.5587 38.2291 34.6664 38.8579 36.0996 40.1155C37.5399 41.3731 38.26 43.3683 38.26 46.1013C38.26 48.8343 37.5399 50.8331 36.0996 52.0978ZM33.2226 42.3391C32.513 41.496 31.3643 41.0745 29.7765 41.0745C28.1957 41.0745 27.047 41.496 26.3304 42.3391C25.6208 43.1822 25.266 44.4398 25.266 46.1119C25.266 47.777 25.6208 49.031 26.3304 49.8741C27.047 50.7102 28.1957 51.1282 29.7765 51.1282C31.3643 51.1282 32.513 50.7102 33.2226 49.8741C33.9322 49.031 34.287 47.777 34.287 46.1119C34.287 44.4398 33.9322 43.1822 33.2226 42.3391Z" fill="white"/>
        <path d="M44.7475 52.6668V39.5464C44.7475 39.2724 44.8424 39.037 45.032 38.8403C45.2217 38.6436 45.4536 38.5452 45.7276 38.5452H53.7685C58.019 38.5452 60.1443 40.5054 60.1443 44.4257C60.1443 48.339 58.019 50.2957 53.7685 50.2957H48.7205V52.6668C48.7205 52.9408 48.6222 53.1762 48.4254 53.3729C48.2358 53.5626 48.0039 53.6575 47.7299 53.6575H45.7487C45.4747 53.6575 45.2393 53.5626 45.0426 53.3729C44.8459 53.1762 44.7475 52.9408 44.7475 52.6668ZM48.7205 47.3133H52.5671C53.7474 47.3133 54.6432 47.1165 55.2544 46.7231C55.8656 46.3226 56.1713 45.5568 56.1713 44.4257C56.1713 43.2876 55.8656 42.5218 55.2544 42.1283C54.6432 41.7279 53.7474 41.5276 52.5671 41.5276H48.7205V47.3133Z" fill="white"/>
        <path d="M80.353 52.0978C78.9197 53.3554 76.812 53.9842 74.0298 53.9842C71.2547 53.9842 69.147 53.3554 67.7067 52.0978C66.2665 50.8331 65.5463 48.8343 65.5463 46.1013C65.5463 43.3683 66.2665 41.3731 67.7067 40.1155C69.147 38.8579 71.2547 38.2291 74.0298 38.2291C76.812 38.2291 78.9197 38.8579 80.353 40.1155C81.7932 41.3731 82.5133 43.3683 82.5133 46.1013C82.5133 48.8343 81.7932 50.8331 80.353 52.0978ZM77.4759 42.3391C76.7663 41.496 75.6176 41.0745 74.0298 41.0745C72.4491 41.0745 71.3004 41.496 70.5837 42.3391C69.8741 43.1822 69.5193 44.4398 69.5193 46.1119C69.5193 47.777 69.8741 49.031 70.5837 49.8741C71.3004 50.7102 72.4491 51.1282 74.0298 51.1282C75.6176 51.1282 76.7663 50.7102 77.4759 49.8741C78.1855 49.031 78.5403 47.777 78.5403 46.1119C78.5403 44.4398 78.1855 43.1822 77.4759 42.3391Z" fill="white"/>
        <path d="M89.0009 52.6668V39.5464C89.0009 39.2724 89.0992 39.037 89.2959 38.8403C89.4927 38.6436 89.735 38.5452 90.0231 38.5452H91.9833C92.2573 38.5452 92.4891 38.6436 92.6788 38.8403C92.8755 39.037 92.9739 39.2724 92.9739 39.5464V44.2887H100.224V39.5464C100.224 39.2724 100.323 39.037 100.519 38.8403C100.716 38.6436 100.952 38.5452 101.226 38.5452H103.186C103.474 38.5452 103.713 38.6436 103.902 38.8403C104.099 39.037 104.197 39.2724 104.197 39.5464V52.6668C104.197 52.9408 104.096 53.1762 103.892 53.3729C103.695 53.5626 103.46 53.6575 103.186 53.6575H101.226C100.952 53.6575 100.716 53.5661 100.519 53.3835C100.323 53.1938 100.224 52.9619 100.224 52.6879V47.2711H92.9739V52.6879C92.9739 52.9619 92.8755 53.1938 92.6788 53.3835C92.4891 53.5661 92.2573 53.6575 91.9833 53.6575H90.0231C89.7491 53.6575 89.5102 53.5626 89.3065 53.3729C89.1027 53.1762 89.0009 52.9408 89.0009 52.6668Z" fill="white"/>
        <path d="M110.306 52.6879L112.951 42.6552C113.667 39.9223 116 38.5522 119.948 38.5452H125.629C125.888 38.5452 126.103 38.6436 126.271 38.8403C126.447 39.037 126.535 39.2654 126.535 39.5253V52.6879C126.535 52.9619 126.436 53.1938 126.24 53.3835C126.043 53.5661 125.808 53.6575 125.534 53.6575H123.552C123.264 53.6575 123.026 53.5661 122.836 53.3835C122.653 53.1938 122.562 52.9549 122.562 52.6668V50.0111H115.069L114.363 52.6668C114.293 52.9549 114.135 53.1938 113.889 53.3835C113.643 53.5661 113.383 53.6575 113.109 53.6575H111.033C110.759 53.6575 110.562 53.5802 110.443 53.4256C110.323 53.264 110.263 53.1235 110.263 53.0041C110.27 52.8846 110.284 52.7792 110.306 52.6879ZM115.849 47.0287H122.562V41.5276H119.558C118.884 41.5276 118.294 41.7208 117.788 42.1072C117.289 42.4866 116.952 42.9995 116.776 43.6459L115.849 47.0287Z" fill="white"/>
    </g>
    <path d="M17.1094 62.802V60.7942C17.1094 60.7502 17.1239 60.7137 17.1528 60.6847C17.1818 60.6558 17.2183 60.6413 17.2623 60.6413H18.8176C18.8616 60.6413 18.8976 60.6558 18.9255 60.6847C18.9545 60.7137 18.969 60.7502 18.969 60.7942V60.9456C18.969 60.9896 18.9545 61.0261 18.9255 61.0551C18.8976 61.083 18.8616 61.0969 18.8176 61.0969H17.7164V62.802C17.7164 62.8438 17.7013 62.8792 17.6713 62.9082C17.6423 62.9361 17.6069 62.9501 17.565 62.9501H17.2623C17.2205 62.9501 17.1845 62.9361 17.1545 62.9082C17.1244 62.8792 17.1094 62.8438 17.1094 62.802Z" fill="white"/>
    <path d="M22.2023 62.7987V60.7942C22.2023 60.7524 22.2168 60.7164 22.2458 60.6864C22.2747 60.6563 22.3102 60.6413 22.352 60.6413H23.5805C24.2299 60.6413 24.5546 60.9407 24.5546 61.5397C24.5546 62.1375 24.2299 62.4365 23.5805 62.4365H22.8093V62.7987C22.8093 62.8406 22.7943 62.8766 22.7642 62.9066C22.7352 62.9356 22.6998 62.9501 22.6579 62.9501H22.3552C22.3134 62.9501 22.2774 62.9356 22.2474 62.9066C22.2173 62.8766 22.2023 62.8406 22.2023 62.7987ZM22.8093 61.9808H23.3969C23.5773 61.9808 23.7141 61.9508 23.8075 61.8907C23.9009 61.8295 23.9476 61.7125 23.9476 61.5397C23.9476 61.3658 23.9009 61.2488 23.8075 61.1887C23.7141 61.1275 23.5773 61.0969 23.3969 61.0969H22.8093V61.9808Z" fill="white"/>
    <path d="M28.3079 62.4655L28.5784 62.4944H28.6122C28.8258 62.4944 28.9718 62.3549 29.0502 62.0758H28.9117C28.6412 62.0758 28.4303 62.0211 28.2789 61.9116C28.1276 61.801 27.9977 61.6218 27.8893 61.3738L27.6365 60.7942C27.6183 60.7513 27.6178 60.7153 27.6349 60.6864C27.6532 60.6563 27.6832 60.6413 27.7251 60.6413H28.0648C28.1679 60.6413 28.2392 60.6901 28.2789 60.7878L28.4641 61.2354C28.5188 61.3653 28.5875 61.4624 28.6702 61.5268C28.7528 61.5901 28.8618 61.6218 28.997 61.6218H29.1951L29.4865 60.791C29.5015 60.7449 29.5278 60.7084 29.5654 60.6815C29.6029 60.6547 29.6437 60.6413 29.6877 60.6413H30.013C30.0548 60.6413 30.0838 60.6531 30.0999 60.6767C30.116 60.6992 30.1241 60.7196 30.1241 60.7379C30.1241 60.7551 30.1214 60.7717 30.116 60.7878L29.5911 62.29C29.5182 62.5014 29.4081 62.6646 29.2611 62.7794C29.114 62.8932 28.9085 62.9501 28.6444 62.9501H28.2564C28.2145 62.9501 28.1786 62.9356 28.1485 62.9066C28.1185 62.8766 28.1035 62.8406 28.1035 62.7987V62.6168C28.1035 62.5749 28.1179 62.5395 28.1469 62.5105C28.1759 62.4805 28.2124 62.4655 28.2564 62.4655H28.3079Z" fill="white"/>
    <path d="M33.1931 62.3206C33.1931 62.2572 33.2119 62.2116 33.2495 62.1837C33.2871 62.1558 33.3236 62.1418 33.359 62.1418H33.549C33.6477 62.1418 33.725 62.2014 33.7808 62.3206C33.8076 62.3774 33.8527 62.4231 33.9161 62.4574C33.9794 62.4918 34.0497 62.5089 34.127 62.5089H34.6309C34.7479 62.5089 34.8354 62.4901 34.8934 62.4526C34.9513 62.415 34.9803 62.3511 34.9803 62.261C34.9803 62.1708 34.9513 62.107 34.8934 62.0694C34.8354 62.0318 34.7479 62.013 34.6309 62.013H34.2155C34.1737 62.013 34.1377 61.9985 34.1077 61.9696C34.0787 61.9395 34.0642 61.9036 34.0642 61.8617V61.7297C34.0642 61.69 34.0781 61.6551 34.106 61.625C34.135 61.5939 34.1694 61.5783 34.2091 61.5783H34.5714C34.7012 61.5783 34.7962 61.559 34.8563 61.5204C34.9175 61.4817 34.9481 61.4189 34.9481 61.332C34.9481 61.244 34.9175 61.1806 34.8563 61.142C34.7962 61.1034 34.7012 61.084 34.5714 61.084H34.1801C34.0062 61.084 33.886 61.15 33.8195 61.2821C33.7712 61.383 33.6987 61.4334 33.6021 61.4334H33.4105C33.359 61.4334 33.3187 61.4146 33.2897 61.3771C33.2608 61.3395 33.2463 61.2987 33.2463 61.2547C33.2463 61.0722 33.3386 60.9225 33.5232 60.8055C33.7078 60.6874 33.908 60.6284 34.1238 60.6284H34.618C35.2427 60.6284 35.5551 60.8635 35.5551 61.3336C35.5551 61.5289 35.481 61.683 35.3329 61.7957C35.5025 61.9009 35.5873 62.056 35.5873 62.261C35.5873 62.5089 35.5095 62.6882 35.3538 62.7987C35.1993 62.9082 34.9771 62.963 34.6873 62.963H34.0706C33.8527 62.963 33.652 62.9034 33.4685 62.7843C33.2849 62.664 33.1931 62.5095 33.1931 62.3206Z" fill="white"/>
    <path d="M41.0151 62.7118C40.7961 62.9039 40.4741 63 40.0491 63C39.6251 63 39.3031 62.9039 39.083 62.7118C38.863 62.5186 38.753 62.2132 38.753 61.7957C38.753 61.3781 38.863 61.0733 39.083 60.8812C39.3031 60.689 39.6251 60.593 40.0491 60.593C40.4741 60.593 40.7961 60.689 41.0151 60.8812C41.2351 61.0733 41.3452 61.3781 41.3452 61.7957C41.3452 62.2132 41.2351 62.5186 41.0151 62.7118ZM40.5756 61.2209C40.4671 61.0921 40.2916 61.0277 40.0491 61.0277C39.8076 61.0277 39.6321 61.0921 39.5226 61.2209C39.4142 61.3497 39.36 61.5418 39.36 61.7973C39.36 62.0517 39.4142 62.2433 39.5226 62.3721C39.6321 62.4998 39.8076 62.5637 40.0491 62.5637C40.2916 62.5637 40.4671 62.4998 40.5756 62.3721C40.684 62.2433 40.7382 62.0517 40.7382 61.7973C40.7382 61.5418 40.684 61.3497 40.5756 61.2209Z" fill="white"/>
    <path d="M44.6445 60.7942C44.6445 60.7524 44.6595 60.7164 44.6896 60.6864C44.7196 60.6563 44.7556 60.6413 44.7974 60.6413H46.1064C46.4273 60.6413 46.664 60.7336 46.8164 60.9182C46.9012 61.0202 46.9436 61.1506 46.9436 61.3094C46.9436 61.4672 46.8712 61.6052 46.7263 61.7232C46.9324 61.8338 47.0354 62.0055 47.0354 62.2384C47.0354 62.4714 46.9528 62.6485 46.7875 62.7698C46.6232 62.89 46.4214 62.9501 46.1821 62.9501H44.7974C44.7556 62.9501 44.7196 62.9356 44.6896 62.9066C44.6595 62.8766 44.6445 62.8406 44.6445 62.7987V60.7942ZM45.2515 62.5154H46.1724C46.2551 62.5154 46.3184 62.4907 46.3624 62.4413C46.4064 62.3919 46.4284 62.3243 46.4284 62.2384C46.4284 62.1526 46.4064 62.085 46.3624 62.0356C46.3184 61.9862 46.2551 61.9615 46.1724 61.9615H45.2515V62.5154ZM45.2515 61.5381H46.1128C46.1805 61.5381 46.2347 61.5182 46.2755 61.4785C46.3162 61.4377 46.3366 61.3814 46.3366 61.3094C46.3366 61.2365 46.3162 61.1796 46.2755 61.1388C46.2347 61.098 46.1805 61.0776 46.1128 61.0776H45.2515V61.5381Z" fill="white"/>
    <path d="M50.3331 62.7955V60.7942C50.3331 60.7502 50.3476 60.7137 50.3766 60.6847C50.4056 60.6558 50.4421 60.6413 50.4861 60.6413H50.7888C50.8306 60.6413 50.866 60.6563 50.895 60.6864C50.9251 60.7164 50.9401 60.7524 50.9401 60.7942V61.427H51.6034C51.8557 61.427 52.065 61.4941 52.2314 61.6282C52.3977 61.7624 52.4809 61.9492 52.4809 62.1885C52.4809 62.4279 52.3977 62.6147 52.2314 62.7488C52.065 62.883 51.8557 62.9501 51.6034 62.9501H50.478C50.4394 62.9501 50.4056 62.9351 50.3766 62.905C50.3476 62.8739 50.3331 62.8374 50.3331 62.7955ZM50.9401 62.4944H51.6034C51.7838 62.4944 51.8739 62.3925 51.8739 62.1885C51.8739 61.9835 51.7838 61.881 51.6034 61.881H50.9401V62.4944ZM52.8029 62.802V60.7942C52.8029 60.7524 52.818 60.7164 52.848 60.6864C52.8781 60.6563 52.914 60.6413 52.9559 60.6413H53.2618C53.3058 60.6413 53.3423 60.6563 53.3713 60.6864C53.4013 60.7164 53.4164 60.7524 53.4164 60.7942V62.7987C53.4164 62.8406 53.4008 62.8766 53.3697 62.9066C53.3396 62.9356 53.3037 62.9501 53.2618 62.9501H52.9559C52.914 62.9501 52.8781 62.9361 52.848 62.9082C52.818 62.8792 52.8029 62.8438 52.8029 62.802Z" fill="white"/>
    <path d="M56.8461 62.7955V60.791C56.8461 60.7491 56.8611 60.7137 56.8912 60.6847C56.9212 60.6558 56.9572 60.6413 56.9991 60.6413H58.8554C58.8973 60.6413 58.9327 60.6563 58.9617 60.6864C58.9918 60.7164 59.0068 60.7524 59.0068 60.7942V60.9456C59.0068 60.9874 58.9918 61.0234 58.9617 61.0534C58.9327 61.0824 58.8973 61.0969 58.8554 61.0969H57.4531V61.5654H58.6606C58.7025 61.5654 58.7379 61.5805 58.7669 61.6105C58.7969 61.6395 58.812 61.6749 58.812 61.7168V61.8681C58.812 61.91 58.7969 61.946 58.7669 61.976C58.7379 62.005 58.7025 62.0195 58.6606 62.0195H57.4531V62.4944H58.8522C58.893 62.4944 58.9279 62.5089 58.9569 62.5379C58.9859 62.5669 59.0003 62.6023 59.0003 62.6442V62.7987C59.0003 62.8406 58.9853 62.8766 58.9553 62.9066C58.9252 62.9356 58.8892 62.9501 58.8474 62.9501H56.9991C56.9572 62.9501 56.9212 62.9356 56.8912 62.9066C56.8611 62.8766 56.8461 62.8395 56.8461 62.7955Z" fill="white"/>
    <path d="M66.3943 62.7987V60.7942C66.3943 60.7524 66.4088 60.7164 66.4378 60.6864C66.4668 60.6563 66.5022 60.6413 66.5441 60.6413H68.6339C68.6758 60.6413 68.7112 60.6563 68.7402 60.6864C68.7702 60.7164 68.7853 60.7524 68.7853 60.7942V62.7987C68.7853 62.8406 68.7697 62.8766 68.7386 62.9066C68.7085 62.9356 68.6726 62.9501 68.6307 62.9501H68.3312C68.2894 62.9501 68.2534 62.9356 68.2234 62.9066C68.1933 62.8766 68.1783 62.8406 68.1783 62.7987V61.0969H67.0013V62.7987C67.0013 62.8406 66.9863 62.8766 66.9562 62.9066C66.9273 62.9356 66.8918 62.9501 66.85 62.9501H66.5473C66.5054 62.9501 66.4695 62.9356 66.4394 62.9066C66.4094 62.8766 66.3943 62.8406 66.3943 62.7987Z" fill="white"/>
    <path d="M72.215 62.7955V60.791C72.215 60.7491 72.23 60.7137 72.2601 60.6847C72.2901 60.6558 72.3261 60.6413 72.368 60.6413H74.2243C74.2662 60.6413 74.3016 60.6563 74.3306 60.6864C74.3607 60.7164 74.3757 60.7524 74.3757 60.7942V60.9456C74.3757 60.9874 74.3607 61.0234 74.3306 61.0534C74.3016 61.0824 74.2662 61.0969 74.2243 61.0969H72.822V61.5654H74.0295C74.0714 61.5654 74.1068 61.5805 74.1358 61.6105C74.1658 61.6395 74.1809 61.6749 74.1809 61.7168V61.8681C74.1809 61.91 74.1658 61.946 74.1358 61.976C74.1068 62.005 74.0714 62.0195 74.0295 62.0195H72.822V62.4944H74.2211C74.2619 62.4944 74.2968 62.5089 74.3258 62.5379C74.3548 62.5669 74.3693 62.6023 74.3693 62.6442V62.7987C74.3693 62.8406 74.3542 62.8766 74.3242 62.9066C74.2941 62.9356 74.2582 62.9501 74.2163 62.9501H72.368C72.3261 62.9501 72.2901 62.9356 72.2601 62.9066C72.23 62.8766 72.215 62.8395 72.215 62.7955Z" fill="white"/>
    <path d="M77.6396 62.7987V60.7942C77.6396 60.7524 77.6541 60.7164 77.6831 60.6864C77.712 60.6563 77.7475 60.6413 77.7893 60.6413H79.0178C79.6672 60.6413 79.9919 60.9407 79.9919 61.5397C79.9919 62.1375 79.6672 62.4365 79.0178 62.4365H78.2466V62.7987C78.2466 62.8406 78.2315 62.8766 78.2015 62.9066C78.1725 62.9356 78.1371 62.9501 78.0952 62.9501H77.7925C77.7507 62.9501 77.7147 62.9356 77.6847 62.9066C77.6546 62.8766 77.6396 62.8406 77.6396 62.7987ZM78.2466 61.9808H78.8342C79.0146 61.9808 79.1514 61.9508 79.2448 61.8907C79.3382 61.8295 79.3849 61.7125 79.3849 61.5397C79.3849 61.3658 79.3382 61.2488 79.2448 61.1887C79.1514 61.1275 79.0146 61.0969 78.8342 61.0969H78.2466V61.9808Z" fill="white"/>
    <path d="M83.2574 62.7955V60.791C83.2574 60.7491 83.2724 60.7137 83.3025 60.6847C83.3325 60.6558 83.3685 60.6413 83.4103 60.6413H85.2667C85.3086 60.6413 85.344 60.6563 85.373 60.6864C85.403 60.7164 85.4181 60.7524 85.4181 60.7942V60.9456C85.4181 60.9874 85.403 61.0234 85.373 61.0534C85.344 61.0824 85.3086 61.0969 85.2667 61.0969H83.8644V61.5654H85.0719C85.1138 61.5654 85.1492 61.5805 85.1782 61.6105C85.2082 61.6395 85.2233 61.6749 85.2233 61.7168V61.8681C85.2233 61.91 85.2082 61.946 85.1782 61.976C85.1492 62.005 85.1138 62.0195 85.0719 62.0195H83.8644V62.4944H85.2635C85.3043 62.4944 85.3392 62.5089 85.3682 62.5379C85.3971 62.5669 85.4116 62.6023 85.4116 62.6442V62.7987C85.4116 62.8406 85.3966 62.8766 85.3665 62.9066C85.3365 62.9356 85.3005 62.9501 85.2587 62.9501H83.4103C83.3685 62.9501 83.3325 62.9356 83.3025 62.9066C83.2724 62.8766 83.2574 62.8395 83.2574 62.7955Z" fill="white"/>
    <path d="M88.682 60.7942C88.682 60.7524 88.697 60.7164 88.727 60.6864C88.7571 60.6563 88.7931 60.6413 88.8349 60.6413H90.1439C90.4648 60.6413 90.7015 60.7336 90.8539 60.9182C90.9387 61.0202 90.9811 61.1506 90.9811 61.3094C90.9811 61.4672 90.9087 61.6052 90.7638 61.7232C90.9698 61.8338 91.0729 62.0055 91.0729 62.2384C91.0729 62.4714 90.9902 62.6485 90.8249 62.7698C90.6607 62.89 90.4589 62.9501 90.2196 62.9501H88.8349C88.7931 62.9501 88.7571 62.9356 88.727 62.9066C88.697 62.8766 88.682 62.8406 88.682 62.7987V60.7942ZM89.289 62.5154H90.2099C90.2926 62.5154 90.3559 62.4907 90.3999 62.4413C90.4439 62.3919 90.4659 62.3243 90.4659 62.2384C90.4659 62.1526 90.4439 62.085 90.3999 62.0356C90.3559 61.9862 90.2926 61.9615 90.2099 61.9615H89.289V62.5154ZM89.289 61.5381H90.1503C90.218 61.5381 90.2722 61.5182 90.313 61.4785C90.3537 61.4377 90.3741 61.3814 90.3741 61.3094C90.3741 61.2365 90.3537 61.1796 90.313 61.1388C90.2722 61.098 90.218 61.0776 90.1503 61.0776H89.289V61.5381Z" fill="white"/>
    <path d="M96.5007 62.7118C96.2817 62.9039 95.9597 63 95.5347 63C95.1107 63 94.7887 62.9039 94.5686 62.7118C94.3486 62.5186 94.2386 62.2132 94.2386 61.7957C94.2386 61.3781 94.3486 61.0733 94.5686 60.8812C94.7887 60.689 95.1107 60.593 95.5347 60.593C95.9597 60.593 96.2817 60.689 96.5007 60.8812C96.7207 61.0733 96.8308 61.3781 96.8308 61.7957C96.8308 62.2132 96.7207 62.5186 96.5007 62.7118ZM96.0612 61.2209C95.9527 61.0921 95.7773 61.0277 95.5347 61.0277C95.2932 61.0277 95.1177 61.0921 95.0082 61.2209C94.8998 61.3497 94.8456 61.5418 94.8456 61.7973C94.8456 62.0517 94.8998 62.2433 95.0082 62.3721C95.1177 62.4998 95.2932 62.5637 95.5347 62.5637C95.7773 62.5637 95.9527 62.4998 96.0612 62.3721C96.1696 62.2433 96.2238 62.0517 96.2238 61.7973C96.2238 61.5418 96.1696 61.3497 96.0612 61.2209Z" fill="white"/>
    <path d="M99.9819 62.3206C99.9819 62.2572 100.001 62.2116 100.038 62.1837C100.076 62.1558 100.112 62.1418 100.148 62.1418H100.338C100.437 62.1418 100.514 62.2014 100.57 62.3206C100.596 62.3774 100.642 62.4231 100.705 62.4574C100.768 62.4918 100.839 62.5089 100.916 62.5089H101.42C101.537 62.5089 101.624 62.4901 101.682 62.4526C101.74 62.415 101.769 62.3511 101.769 62.261C101.769 62.1708 101.74 62.107 101.682 62.0694C101.624 62.0318 101.537 62.013 101.42 62.013H101.004C100.962 62.013 100.927 61.9985 100.896 61.9696C100.867 61.9395 100.853 61.9036 100.853 61.8617V61.7297C100.853 61.69 100.867 61.6551 100.895 61.625C100.924 61.5939 100.958 61.5783 100.998 61.5783H101.36C101.49 61.5783 101.585 61.559 101.645 61.5204C101.706 61.4817 101.737 61.4189 101.737 61.332C101.737 61.244 101.706 61.1806 101.645 61.142C101.585 61.1034 101.49 61.084 101.36 61.084H100.969C100.795 61.084 100.675 61.15 100.608 61.2821C100.56 61.383 100.488 61.4334 100.391 61.4334H100.199C100.148 61.4334 100.108 61.4146 100.079 61.3771C100.05 61.3395 100.035 61.2987 100.035 61.2547C100.035 61.0722 100.127 60.9225 100.312 60.8055C100.497 60.6874 100.697 60.6284 100.913 60.6284H101.407C102.032 60.6284 102.344 60.8635 102.344 61.3336C102.344 61.5289 102.27 61.683 102.122 61.7957C102.291 61.9009 102.376 62.056 102.376 62.261C102.376 62.5089 102.298 62.6882 102.143 62.7987C101.988 62.9082 101.766 62.963 101.476 62.963H100.859C100.642 62.963 100.441 62.9034 100.257 62.7843C100.074 62.664 99.9819 62.5095 99.9819 62.3206Z" fill="white"/>
    <path d="M108.063 62.8792C108.063 62.9265 108.035 62.9501 107.979 62.9501H107.611C107.569 62.9501 107.524 62.9356 107.475 62.9066C107.427 62.8766 107.39 62.8406 107.363 62.7987L107.079 62.3495C107.012 62.2401 106.944 62.1579 106.875 62.1032C106.806 62.0474 106.724 62.0195 106.627 62.0195H106.281V62.802C106.281 62.8438 106.266 62.8792 106.236 62.9082C106.207 62.9361 106.171 62.9501 106.129 62.9501H105.827C105.785 62.9501 105.749 62.9351 105.719 62.905C105.689 62.8739 105.674 62.8374 105.674 62.7955V60.7942C105.674 60.7524 105.689 60.7159 105.719 60.6847C105.749 60.6536 105.785 60.6381 105.827 60.6381H106.129C106.171 60.6381 106.207 60.6536 106.236 60.6847C106.266 60.7159 106.281 60.7524 106.281 60.7942V61.5654H106.627C106.721 61.5654 106.804 61.5397 106.875 61.4882C106.947 61.4366 107.015 61.3535 107.079 61.2386L107.329 60.7942C107.386 60.6912 107.463 60.6391 107.561 60.6381H107.933C107.984 60.6381 108.01 60.6606 108.01 60.7057C108.01 60.7304 108.001 60.7599 107.983 60.7942L107.633 61.427C107.583 61.5193 107.526 61.5955 107.463 61.6556C107.4 61.7157 107.319 61.7581 107.218 61.7828C107.289 61.7978 107.361 61.8424 107.435 61.9164C107.51 61.9905 107.576 62.071 107.633 62.1579L108.036 62.7987C108.054 62.8299 108.063 62.8567 108.063 62.8792Z" fill="white"/>
    <path d="M111.263 62.7987V60.7942C111.263 60.7502 111.277 60.7137 111.306 60.6847C111.335 60.6558 111.372 60.6413 111.416 60.6413H111.699C111.741 60.6413 111.776 60.6558 111.805 60.6847C111.835 60.7137 111.85 60.7491 111.85 60.791V62.4027L112.766 60.7942C112.791 60.7524 112.825 60.7164 112.868 60.6864C112.911 60.6563 112.95 60.6413 112.987 60.6413H113.462C113.504 60.6413 113.539 60.6563 113.568 60.6864C113.597 60.7164 113.612 60.7524 113.612 60.7942V62.7987C113.612 62.8406 113.597 62.8766 113.567 62.9066C113.537 62.9356 113.501 62.9501 113.459 62.9501H113.175C113.133 62.9501 113.098 62.9356 113.067 62.9066C113.038 62.8766 113.024 62.8406 113.024 62.7987V61.3046L112.184 62.7987C112.159 62.8406 112.124 62.8766 112.079 62.9066C112.034 62.9356 111.99 62.9501 111.948 62.9501H111.416C111.374 62.9501 111.338 62.9356 111.308 62.9066C111.278 62.8766 111.263 62.8406 111.263 62.7987Z" fill="white"/>
    <g filter="url(#filter1_d)">
        <path d="M63.1834 27.4642L73.4622 27.4942L80.1349 6.56779C80.2878 6.61875 80.4497 6.65173 80.6206 6.65173C81.4989 6.65173 82.2123 5.93829 82.2123 5.05999C82.2123 4.18168 81.4989 3.46825 80.6206 3.46825C79.7423 3.46825 79.0288 4.18168 79.0288 5.05999C79.0288 5.60256 79.3016 6.07918 79.7153 6.36695L72.0294 17.599L71.6487 9.40354C71.7026 9.40954 71.7536 9.41853 71.8075 9.41853C72.6858 9.41853 73.3993 8.7051 73.3993 7.82679C73.3993 6.94849 72.6858 6.23506 71.8075 6.23506C70.9292 6.23506 70.2158 6.94849 70.2158 7.82679C70.2158 8.50426 70.6415 9.0798 71.238 9.30762L67.1612 15.6536L63.4412 3.1535C64.1966 3.0306 64.7751 2.38011 64.7751 1.58874C64.7751 0.713434 64.0617 0 63.1834 0C62.3051 0 61.5916 0.713434 61.5916 1.59174C61.5916 2.38311 62.1702 3.03359 62.9256 3.1565L59.2055 15.6566L55.1288 9.31062C55.7253 9.0798 56.151 8.50726 56.151 7.82979C56.151 6.95149 55.4375 6.23805 54.5592 6.23805C53.6809 6.23805 52.9675 6.95149 52.9675 7.82979C52.9675 8.7081 53.6809 9.42153 54.5592 9.42153C54.6132 9.42153 54.6641 9.40954 54.7181 9.40654L54.3374 17.602L46.6515 6.36695C47.0652 6.07918 47.3379 5.60256 47.3379 5.05999C47.3379 4.18168 46.6245 3.46825 45.7462 3.46825C44.8679 3.46825 44.1575 4.18168 44.1575 5.05999C44.1575 5.93829 44.8709 6.65173 45.7492 6.65173C45.9201 6.65173 46.0819 6.61875 46.2348 6.56779L52.9075 27.4942L63.1834 27.4642Z" fill="white"/>
    </g>
    <defs>
        <filter id="filter0_d" x="0" y="38.2291" width="127.535" height="18.7551" filterUnits="userSpaceOnUse" color-interpolation-filters="sRGB">
            <feFlood flood-opacity="0" result="BackgroundImageFix"/>
            <feColorMatrix in="SourceAlpha" type="matrix" values="0 0 0 0 0 0 0 0 0 0 0 0 0 0 0 0 0 0 127 0"/>
            <feOffset dy="2"/>
            <feGaussianBlur stdDeviation="0.5"/>
            <feColorMatrix type="matrix" values="0 0 0 0 0 0 0 0 0 0 0 0 0 0 0 0 0 0 0.25 0"/>
            <feBlend mode="normal" in2="BackgroundImageFix" result="effect1_dropShadow"/>
            <feBlend mode="normal" in="SourceGraphic" in2="effect1_dropShadow" result="shape"/>
        </filter>
        <filter id="filter1_d" x="43.1575" y="0" width="40.0548" height="30.4942" filterUnits="userSpaceOnUse" color-interpolation-filters="sRGB">
            <feFlood flood-opacity="0" result="BackgroundImageFix"/>
            <feColorMatrix in="SourceAlpha" type="matrix" values="0 0 0 0 0 0 0 0 0 0 0 0 0 0 0 0 0 0 127 0"/>
            <feOffset dy="2"/>
            <feGaussianBlur stdDeviation="0.5"/>
            <feColorMatrix type="matrix" values="0 0 0 0 0 0 0 0 0 0 0 0 0 0 0 0 0 0 0.25 0"/>
            <feBlend mode="normal" in2="BackgroundImageFix" result="effect1_dropShadow"/>
            <feBlend mode="normal" in="SourceGraphic" in2="effect1_dropShadow" result="shape"/>
        </filter>
    </defs>
</svg>
